<svg width="40" height="40" viewBox="0 0 40 40" fill="none" xmlns="http://www.w3.org/2000/svg"
    data-astro-source-file="/Users/themefisher/Development/astro/__themes/atemp-astro/src/pages/index.astro"
    data-astro-source-loc="181:54">
    <path fill-rule="evenodd" clip-rule="evenodd"
        d="M11.6784 2.66248C10.6959 2.90498 9.75836 3.49998 9.06086 4.31998C8.61586 4.84498 1.24836 17.7625 1.03586 18.3925C0.683359 19.4375 0.683359 20.5625 1.03586 21.6075C1.24836 22.2375 8.61586 35.155 9.06086 35.68C9.53836 36.2425 10.0509 36.6425 10.7009 36.9625C11.8409 37.52 11.3184 37.4875 19.4334 37.515C24.1159 37.5325 26.9034 37.5175 27.4034 37.47C28.9159 37.335 29.9909 36.7925 30.9234 35.6975C31.3809 35.1625 38.7459 22.26 38.9659 21.6075C39.3159 20.5775 39.3159 19.425 38.9684 18.3975C38.7459 17.74 31.3834 4.83998 30.9234 4.30248C30.2834 3.55248 29.5884 3.07748 28.6009 2.72248L28.1684 2.56748L20.1684 2.55498C12.6484 2.54248 12.1384 2.54998 11.6784 2.66248ZM27.6534 6.39248C27.7884 6.46248 27.9534 6.57498 28.0159 6.64498C28.0784 6.71498 29.7809 9.66498 31.7984 13.2C35.4359 19.5675 35.4684 19.6275 35.4684 19.995C35.4684 20.3625 35.4359 20.4225 31.7709 26.8375C29.7359 30.395 28.0184 33.355 27.9534 33.4125C27.5684 33.75 27.9709 33.7325 20.0009 33.7325C12.8659 33.7325 12.5859 33.7275 12.3484 33.6075C12.2134 33.5375 12.0484 33.425 11.9859 33.355C11.9234 33.285 10.2209 30.335 8.20336 26.8C4.54086 20.3875 4.53336 20.375 4.53336 19.9975C4.53336 19.62 4.54086 19.605 8.20586 13.1925C10.2234 9.65998 11.9259 6.71248 11.9884 6.64248C12.0509 6.57498 12.2059 6.46498 12.3334 6.39498C12.5584 6.27748 12.8959 6.27248 19.9859 6.26998C27.1384 6.26748 27.4159 6.26998 27.6534 6.39248ZM19.3259 10.8075C19.0834 10.8375 18.6484 10.9475 18.3584 11.05C17.8234 11.24 14.1134 13.31 13.3684 13.835C12.3509 14.55 11.6209 15.6575 11.3659 16.8725C11.2234 17.555 11.2234 22.445 11.3659 23.1275C11.6209 24.3425 12.3509 25.45 13.3684 26.165C14.1034 26.6825 17.8234 28.76 18.3484 28.945C19.4034 29.32 20.5959 29.32 21.6459 28.9475C22.1359 28.775 25.7684 26.7575 26.6009 26.195C27.3209 25.7125 28.0034 24.865 28.3609 24.0125C28.7034 23.2 28.7334 22.88 28.7334 20C28.7334 17.12 28.7034 16.8 28.3609 15.9875C28.0034 15.135 27.3209 14.2875 26.6009 13.805C25.7759 13.2475 22.1359 11.225 21.6534 11.055C21.3684 10.9525 20.8909 10.84 20.5884 10.8025C19.9784 10.725 19.9534 10.725 19.3259 10.8075ZM22.3509 15.6575C23.4359 16.2775 24.4134 16.8475 24.5234 16.925C24.6334 17.0025 24.7859 17.1975 24.8609 17.355C24.9959 17.63 25.0009 17.745 25.0009 20C25.0009 22.255 24.9959 22.37 24.8609 22.645C24.7859 22.8025 24.6334 22.9975 24.5234 23.075C24.4134 23.1525 23.4359 23.7225 22.3509 24.3425C20.4359 25.435 20.3684 25.4675 19.9984 25.4675C19.6309 25.4675 19.5659 25.435 17.6934 24.3625C15.2759 22.9775 15.3134 23.0025 15.1434 22.65C15.0059 22.37 15.0009 22.2675 15.0009 20C15.0009 17.7325 15.0059 17.63 15.1434 17.35C15.3134 16.9975 15.2759 17.0225 17.6934 15.6375C19.5659 14.565 19.6309 14.5325 19.9984 14.5325C20.3684 14.5325 20.4359 14.565 22.3509 15.6575Z"
        fill="white"
        data-astro-source-file="/Users/themefisher/Development/astro/__themes/atemp-astro/src/pages/index.astro"
        data-astro-source-loc="186:34"></path>
</svg>