<svg width="32" height="32" viewBox="0 0 32 32" fill="none" xmlns="http://www.w3.org/2000/svg">
<path fill-rule="evenodd" clip-rule="evenodd" d="M15.9466 5H16.053C16.9724 4.99997 17.739 4.99995 18.3477 5.08177C18.9901 5.16814 19.57 5.35813 20.036 5.82418C20.5021 6.29024 20.6921 6.87021 20.7785 7.51259C20.8389 7.96241 20.8547 8.49855 20.8588 9.11888C21.5224 9.14018 22.1139 9.17898 22.6396 9.24966C23.8393 9.41095 24.8104 9.75078 25.5761 10.5165C26.3418 11.2823 26.6817 12.2533 26.843 13.453C26.8945 13.8364 26.9291 14.2548 26.9523 14.7107C26.983 14.7935 26.9997 14.8831 26.9997 14.9766C26.9997 15.0475 26.9901 15.1162 26.972 15.1815C26.9997 16.002 26.9997 16.9339 26.9997 17.9886V18.104C26.9997 19.1589 26.9997 20.0907 26.972 20.9112C26.9901 20.9765 26.9997 21.0451 26.9997 21.116C26.9997 21.2096 26.983 21.2991 26.9523 21.382C26.9291 21.8378 26.8945 22.2562 26.843 22.6396C26.6817 23.8393 26.3418 24.8104 25.5761 25.5761C24.8104 26.3418 23.8393 26.6817 22.6396 26.843C21.474 26.9997 19.9845 26.9997 18.104 26.9997H13.8956C12.0152 26.9997 10.5257 26.9997 9.36001 26.843C8.16034 26.6817 7.18934 26.3418 6.42357 25.5761C5.65782 24.8104 5.31798 23.8393 5.1567 22.6396C5.10515 22.2562 5.07055 21.8378 5.04735 21.382C5.01672 21.2992 5 21.2096 5 21.116C5 21.0451 5.00963 20.9765 5.02764 20.9112C4.99998 20.0907 4.99999 19.1589 5 18.104V17.9886C4.99999 16.9338 4.99998 16.002 5.02764 15.1815C5.00963 15.1162 5 15.0475 5 14.9766C5 14.8831 5.01672 14.7935 5.04735 14.7107C5.07055 14.2548 5.10515 13.8364 5.1567 13.453C5.31798 12.2533 5.65782 11.2823 6.42357 10.5165C7.18934 9.75078 8.16034 9.41095 9.36001 9.24966C9.88572 9.17898 10.4773 9.14018 11.1409 9.11888C11.145 8.49855 11.1607 7.96241 11.2212 7.51259C11.3076 6.87021 11.4976 6.29024 11.9636 5.82418C12.4297 5.35813 13.0097 5.16814 13.652 5.08177C14.2606 4.99995 15.0272 4.99997 15.9466 5ZM12.6761 9.09479C13.0631 9.09295 13.4693 9.09296 13.8956 9.09296H18.104C18.5304 9.09296 18.9366 9.09295 19.3235 9.09479C19.3192 8.51121 19.3049 8.071 19.2573 7.7171C19.1938 7.24492 19.0841 7.04284 18.9508 6.90949C18.8174 6.77614 18.6153 6.66643 18.1431 6.60295C17.6489 6.5365 16.9862 6.53486 15.9998 6.53486C15.0134 6.53486 14.3508 6.5365 13.8565 6.60295C13.3844 6.66643 13.1823 6.77614 13.0489 6.90949C12.9156 7.04284 12.8059 7.24492 12.7424 7.7171C12.6948 8.071 12.6805 8.51121 12.6761 9.09479ZM6.54826 15.744C6.53519 16.4119 6.53486 17.1725 6.53486 18.0463C6.53486 18.9202 6.53519 19.6807 6.54826 20.3486H25.4514C25.4645 19.6807 25.4648 18.9202 25.4648 18.0463C25.4648 17.1725 25.4645 16.4119 25.4514 15.744H6.54826ZM25.3812 14.2092H6.61844C6.63483 14.0154 6.65443 13.8318 6.67787 13.6575C6.81627 12.628 7.07584 12.0349 7.50888 11.6019C7.94193 11.1688 8.53505 10.9092 9.56452 10.7708C10.6161 10.6295 12.0022 10.6278 13.9534 10.6278H18.0463C19.9974 10.6278 21.3836 10.6295 22.4352 10.7708C23.4646 10.9092 24.0578 11.1688 24.4908 11.6019C24.9238 12.0349 25.1834 12.628 25.3218 13.6575C25.3452 13.8318 25.3648 14.0154 25.3812 14.2092ZM25.3812 21.8835H6.61844C6.63483 22.0773 6.65443 22.2608 6.67787 22.4352C6.81627 23.4646 7.07584 24.0578 7.50888 24.4908C7.94193 24.9238 8.53505 25.1834 9.56452 25.3218C10.6161 25.4632 12.0022 25.4648 13.9534 25.4648H18.0463C19.9974 25.4648 21.3836 25.4632 22.4352 25.3218C23.4646 25.1834 24.0578 24.9238 24.4908 24.4908C24.9238 24.0578 25.1834 23.4646 25.3218 22.4352C25.3452 22.2608 25.3648 22.0773 25.3812 21.8835Z" fill="white"/>
</svg>
