<svg width="32" height="32" viewBox="0 0 32 32" fill="none" xmlns="http://www.w3.org/2000/svg">
<path d="M10.3751 12.6251H21.6253M10.3751 17.1252H21.6253M26.1254 25.0003L22.3855 23.1303C22.102 22.9886 21.9602 22.9177 21.8116 22.8677C21.6797 22.8234 21.5439 22.7913 21.4061 22.772C21.2509 22.7503 21.0924 22.7503 20.7754 22.7503H9.47506C8.21492 22.7503 7.58485 22.7503 7.10354 22.505C6.68017 22.2894 6.33595 21.9451 6.12024 21.5218C5.875 21.0405 5.875 20.4104 5.875 19.1502V10.6001C5.875 9.33992 5.875 8.70985 6.12024 8.22854C6.33595 7.80517 6.68017 7.46095 7.10354 7.24524C7.58485 7 8.21493 7 9.47506 7H22.5253C23.7854 7 24.4156 7 24.8968 7.24524C25.3202 7.46095 25.6644 7.80517 25.8801 8.22854C26.1254 8.70985 26.1254 9.33993 26.1254 10.6001V25.0003Z" stroke="white" stroke-width="1.7" stroke-linecap="round" stroke-linejoin="round"/>
</svg>
