<svg width="60" height="60" viewBox="0 0 60 60" fill="none" xmlns="http://www.w3.org/2000/svg">
    <rect width="60" height="60" fill="#6EE272" fill-opacity="0.2" />
    <g clip-path="url(#clip0_5488_2)">
        <path fill-rule="evenodd" clip-rule="evenodd"
            d="M17.0939 14.6181C16.5159 14.7681 16.0319 15.0581 15.5459 15.5461C15.0479 16.0441 14.8319 16.3961 14.6319 17.0401L14.5059 17.4401V30.0001V42.5601L14.6319 42.9601C14.8319 43.6041 15.0479 43.9561 15.5459 44.4541C16.0439 44.9521 16.3959 45.1681 17.0399 45.3681L17.4399 45.4941H29.9999H42.5599L42.9599 45.3681C43.6039 45.1681 43.9559 44.9521 44.4539 44.4541C44.9519 43.9561 45.1679 43.6041 45.3679 42.9601L45.4939 42.5601V30.0001V17.4401L45.3679 17.0401C45.1679 16.3961 44.9519 16.0441 44.4539 15.5461C43.9599 15.0501 43.4779 14.7641 42.8819 14.6141C42.4139 14.4961 17.5479 14.4981 17.0939 14.6181ZM42.3399 17.6601L42.4799 17.8021V20.6481V23.4941H29.9999H17.5199V20.6481V17.8021L17.6599 17.6601L17.8019 17.5201H29.9999H42.1979L42.3399 17.6601ZM23.4939 34.5341V42.5341H20.8059C19.3299 42.5341 18.0459 42.5181 17.9539 42.5001C17.8619 42.4821 17.7279 42.4061 17.6539 42.3321L17.5199 42.1981V34.3661V26.5341H20.5059H23.4939V34.5341ZM42.4799 34.3661V42.1981L42.3459 42.3321C42.2719 42.4061 42.1379 42.4821 42.0459 42.5001C41.9539 42.5181 38.4279 42.5341 34.2059 42.5341H26.5339V34.5341V26.5341H34.5059H42.4799V34.3661Z"
            fill="#6EE272" />
    </g>
    <defs>
        <clipPath id="clip0_5488_2">
            <rect width="32" height="32" fill="white" transform="translate(14 14)" />
        </clipPath>
    </defs>
</svg>