<svg width="32" height="32" viewBox="0 0 32 32" fill="none" xmlns="http://www.w3.org/2000/svg">
    <path
        d="M27 15.2386C26.9999 15.5303 26.884 15.8101 26.6777 16.0163L16.0167 26.6773C15.8104 26.8835 15.5307 26.9994 15.239 26.9994C14.9473 26.9994 14.6676 26.8835 14.4613 26.6773L5.32267 17.5398C5.11646 17.3335 5.00061 17.0538 5.00061 16.7621C5.00061 16.4704 5.11646 16.1907 5.32267 15.9844L15.9837 5.32229C16.1899 5.11599 16.4697 5.00006 16.7614 5H25.9C26.1918 5 26.4715 5.11589 26.6778 5.32218C26.8841 5.52846 27 5.80825 27 6.09998V15.2386ZM24.8 7.19996H17.2168L7.65573 16.761L15.239 24.3443L24.8 14.7832V7.19996ZM18.2848 10.6693C17.9836 10.9705 17.7785 11.3543 17.6954 11.7721C17.6123 12.1899 17.6549 12.6229 17.818 13.0165C17.981 13.41 18.257 13.7464 18.6112 13.983C18.9654 14.2197 19.3818 14.346 19.8078 14.346C20.2337 14.346 20.6502 14.2197 21.0043 13.983C21.3585 13.7464 21.6346 13.41 21.7976 13.0165C21.9606 12.6229 22.0033 12.1899 21.9201 11.7721C21.837 11.3543 21.6319 10.9705 21.3307 10.6693C21.1308 10.4692 20.8934 10.3104 20.6321 10.2021C20.3707 10.0938 20.0906 10.038 19.8078 10.038C19.5249 10.038 19.2448 10.0938 18.9835 10.2021C18.7222 10.3104 18.4848 10.4692 18.2848 10.6693Z"
        fill="white" />
</svg>