<svg width="48" height="48" viewBox="0 0 48 48" fill="none" xmlns="http://www.w3.org/2000/svg">
<g clip-path="url(#clip0_3650_16410)">
<path d="M32.48 15.5C30.14 13.16 27.8299 12.375 24.7499 12.375V24L16.3196 32.46C20.9996 37.14 27.8 37.14 32.5 32.46C37.18 27.78 37.18 20.18 32.48 15.5ZM24 3.97998C12.96 3.97998 4 12.94 4 23.98C4 35.02 12.96 43.98 24 43.98C35.04 43.98 44 35.02 44 23.98C44 12.94 35.04 3.97998 24 3.97998ZM24 39.98C15.16 39.98 8 32.82 8 23.98C8 15.14 15.16 7.97998 24 7.97998C32.84 7.97998 40 15.14 40 23.98C40 32.82 32.84 39.98 24 39.98Z" fill="white"/>
<path d="M32.71 15.52C30.37 13.18 27.31 12 24.23 12V24L15.75 32.48C20.43 37.16 28.03 37.16 32.73 32.48C37.41 27.8 37.41 20.2 32.71 15.52Z" fill="white"/>
</g>
<defs>
<clipPath id="clip0_3650_16410">
<rect width="48" height="48" fill="white"/>
</clipPath>
</defs>
</svg>
