<svg width="48" height="48" viewBox="0 0 48 48" fill="none" xmlns="http://www.w3.org/2000/svg">
<g clip-path="url(#clip0_3650_16420)">
<path d="M24 9.62V38C17.38 38 12 32.74 12 26.26C12 23.14 13.24 20.2 15.5 17.98L24 9.62ZM24 4L12.7 15.12C9.8 17.98 8 21.92 8 26.26C8 34.96 15.16 42 24 42C32.84 42 40 34.96 40 26.26C40 21.92 38.2 17.98 35.3 15.12L24 4Z" fill="white"/>
<path d="M26.25 9.75V13.8541V37.5C32.4656 37.5 37.5 32.3589 37.5 26.0057C37.5 22.8363 36.2344 19.9591 34.1953 17.8705L26.25 9.75Z" fill="white"/>
</g>
<defs>
<clipPath id="clip0_3650_16420">
<rect width="48" height="48" fill="white"/>
</clipPath>
</defs>
</svg>
