<svg width="40" height="40" viewBox="0 0 40 40" fill="none" xmlns="http://www.w3.org/2000/svg"
    data-astro-source-file="/Users/themefisher/Development/astro/__themes/atemp-astro/src/pages/index.astro"
    data-astro-source-loc="218:54">
    <g clip-path="url(#clip0_3650_15927)"
        data-astro-source-file="/Users/themefisher/Development/astro/__themes/atemp-astro/src/pages/index.astro"
        data-astro-source-loc="219:57">
        <path
            d="M20.5181 0.323962C21.1676 0.513099 21.6625 1.04107 21.8093 1.70144L24.8073 15.1926L38.2985 18.1906C38.959 18.3374 39.487 18.8322 39.676 19.4817C39.8652 20.1312 39.6855 20.8322 39.207 21.3105L21.3107 39.207C20.8626 39.655 20.2166 39.8433 19.598 39.7058L4.95534 36.4518C4.25284 36.2958 3.70419 35.747 3.54806 35.0445L0.29417 20.402C0.156702 19.7834 0.344808 19.1374 0.792905 18.6893L18.6893 0.792914C19.1677 0.314569 19.8686 0.134826 20.5181 0.323962ZM21.2238 16.1549L18.923 5.8016L4.13356 20.5911L6.43429 30.9443L21.2238 16.1549ZM9.05551 33.5655L19.4089 35.8663L34.1985 21.0768L23.845 18.7761L9.05551 33.5655Z"
            fill="white"
            data-astro-source-file="/Users/themefisher/Development/astro/__themes/atemp-astro/src/pages/index.astro"
            data-astro-source-loc="222:36"></path>
    </g>
    <defs data-astro-source-file="/Users/themefisher/Development/astro/__themes/atemp-astro/src/pages/index.astro"
        data-astro-source-loc="225:25">
        <clipPath id="clip0_3650_15927"
            data-astro-source-file="/Users/themefisher/Development/astro/__themes/atemp-astro/src/pages/index.astro"
            data-astro-source-loc="226:53">
            <rect width="40" height="40" fill="white"
                data-astro-source-file="/Users/themefisher/Development/astro/__themes/atemp-astro/src/pages/index.astro"
                data-astro-source-loc="227:24"></rect>
        </clipPath>
    </defs>
</svg>