<?xml version="1.0" encoding="UTF-8" standalone="no"?>
<!DOCTYPE svg PUBLIC "-//W3C//DTD SVG 1.1//EN" "http://www.w3.org/Graphics/SVG/1.1/DTD/svg11.dtd">
<svg width="100%" height="100%" viewBox="0 0 150 46" version="1.1" xmlns="http://www.w3.org/2000/svg" xmlns:xlink="http://www.w3.org/1999/xlink" xml:space="preserve" xmlns:serif="http://www.serif.com/" style="fill-rule:evenodd;clip-rule:evenodd;stroke-linejoin:round;stroke-miterlimit:2;">
    <g transform="matrix(0.0701241,0,0,0.0701241,3.19294,-48.8071)">
        <path d="M649.665,945.017C652.92,963.695 654.548,965.347 654.548,985.85C654.548,1074.95 641.927,1139.55 578.228,1194.61C546.251,1222.14 493.509,1248.78 458.462,1259.55C425.717,1270.31 379.285,1275.69 319.168,1275.69L228.374,1275.69C210.701,1275.69 196.374,1261.36 196.374,1243.69L196.374,696.01L320.703,696.01C380.309,696.01 427.38,701.767 461.915,713.28C470.36,715.844 478.625,718.817 486.712,722.198L419.483,789.427C392.269,781.963 361.133,778.232 326.075,778.232L285.783,778.232L285.783,1177.47C285.783,1186.31 292.947,1193.47 301.783,1193.47L326.075,1193.47C366.239,1193.47 399.768,1189.79 426.228,1181.08C563.748,1135.8 569.171,1064.28 574.864,1013.91L649.665,945.017ZM613.593,886.429L613.593,957.158L542.864,957.158L542.864,886.429L613.593,886.429ZM635.641,729.754L635.641,787.167L578.228,787.167L578.228,729.754L635.641,729.754ZM1060.72,1019.2C1060.72,1008.68 1064.25,999.832 1071.3,992.639C1078.36,985.447 1087.69,981.85 1099.31,981.85C1110.93,981.85 1120.27,985.447 1127.32,992.639C1134.38,999.832 1137.9,1008.68 1137.9,1019.2C1137.9,1029.71 1134.38,1038.56 1127.32,1045.75C1120.27,1052.95 1110.93,1056.54 1099.31,1056.54C1087.69,1056.54 1078.36,1052.95 1071.3,1045.75C1064.25,1038.56 1060.72,1029.71 1060.72,1019.2ZM1134.58,1276.47C1131.54,1277.02 1127.05,1277.78 1121.1,1278.75C1115.15,1279.72 1109.13,1280.2 1103.05,1280.2C1096.96,1280.2 1091.5,1279.79 1086.66,1278.96C1081.82,1278.13 1077.74,1276.47 1074.42,1273.98C1071.1,1271.49 1068.54,1268.1 1066.74,1263.81C1064.94,1259.52 1064.04,1253.92 1064.04,1247.01L1064.04,1078.12C1067.09,1077.57 1071.58,1076.81 1077.53,1075.84C1083.48,1074.87 1089.49,1074.38 1095.58,1074.38C1101.66,1074.38 1107.13,1074.8 1111.97,1075.63C1116.81,1076.46 1120.89,1078.12 1124.21,1080.61C1127.53,1083.1 1130.09,1086.49 1131.89,1090.78C1133.68,1095.06 1134.58,1100.67 1134.58,1107.58L1134.58,1276.47ZM1249.94,1207.59C1249.94,1214.78 1252.22,1219.9 1256.79,1222.94C1261.35,1225.98 1267.79,1227.5 1276.08,1227.5C1280.23,1227.5 1284.52,1227.16 1288.95,1226.47C1293.37,1225.78 1297.25,1224.88 1300.57,1223.77C1303.06,1226.81 1305.2,1230.2 1307,1233.93C1308.8,1237.67 1309.69,1242.16 1309.69,1247.42C1309.69,1257.93 1305.75,1266.51 1297.87,1273.15C1289.99,1279.79 1276.08,1283.11 1256.17,1283.11C1231.82,1283.11 1213.08,1277.58 1199.94,1266.51C1186.8,1255.44 1180.23,1237.46 1180.23,1212.57L1180.23,1034.96C1183.27,1034.13 1187.63,1033.24 1193.3,1032.27C1198.97,1031.3 1204.99,1030.82 1211.35,1030.82C1223.52,1030.82 1233,1032.96 1239.78,1037.25C1246.55,1041.54 1249.94,1050.6 1249.94,1064.43L1249.94,1090.98L1304.3,1090.98C1305.96,1094.03 1307.55,1097.83 1309.07,1102.39C1310.59,1106.96 1311.36,1112.01 1311.36,1117.54C1311.36,1127.22 1309.21,1134.21 1304.92,1138.5C1300.63,1142.78 1294.89,1144.93 1287.7,1144.93L1249.94,1144.93L1249.94,1207.59ZM1343.72,1019.2C1343.72,1008.68 1347.25,999.832 1354.3,992.639C1361.36,985.447 1370.69,981.85 1382.31,981.85C1393.93,981.85 1403.27,985.447 1410.32,992.639C1417.38,999.832 1420.9,1008.68 1420.9,1019.2C1420.9,1029.71 1417.38,1038.56 1410.32,1045.75C1403.27,1052.95 1393.93,1056.54 1382.31,1056.54C1370.69,1056.54 1361.36,1052.95 1354.3,1045.75C1347.25,1038.56 1343.72,1029.71 1343.72,1019.2ZM1417.58,1276.47C1414.54,1277.02 1410.05,1277.78 1404.1,1278.75C1398.15,1279.72 1392.13,1280.2 1386.05,1280.2C1379.96,1280.2 1374.5,1279.79 1369.66,1278.96C1364.82,1278.13 1360.74,1276.47 1357.41,1273.98C1354.1,1271.49 1351.54,1268.1 1349.74,1263.81C1347.94,1259.52 1347.04,1253.92 1347.04,1247.01L1347.04,1078.12C1350.08,1077.57 1354.58,1076.81 1360.53,1075.84C1366.48,1074.87 1372.49,1074.38 1378.58,1074.38C1384.66,1074.38 1390.13,1074.8 1394.97,1075.63C1399.81,1076.46 1403.89,1078.12 1407.21,1080.61C1410.53,1083.1 1413.09,1086.49 1414.89,1090.78C1416.68,1095.06 1417.58,1100.67 1417.58,1107.58L1417.58,1276.47ZM1469.45,1276.88C1465.03,1273.01 1461.5,1268.45 1458.87,1263.19C1456.24,1257.93 1454.93,1251.99 1454.93,1245.35C1454.93,1239.81 1456.24,1234.35 1458.87,1228.96C1461.5,1223.56 1464.75,1218.51 1468.62,1213.81L1540,1129.99L1463.64,1129.99C1461.98,1126.95 1460.39,1123.07 1458.87,1118.37C1457.35,1113.67 1456.59,1108.55 1456.59,1103.02C1456.59,1093.34 1458.73,1086.35 1463.02,1082.06C1467.31,1077.77 1473.05,1075.63 1480.24,1075.63L1610.95,1075.63C1615.38,1079.5 1618.91,1084.07 1621.53,1089.32C1624.16,1094.58 1625.48,1100.53 1625.48,1107.17C1625.48,1112.7 1624.16,1118.16 1621.53,1123.56C1618.91,1128.95 1615.65,1134 1611.78,1138.7L1542.07,1222.52L1623.4,1222.52C1625.06,1225.57 1626.65,1229.44 1628.17,1234.14C1629.69,1238.85 1630.45,1243.96 1630.45,1249.5C1630.45,1259.18 1628.31,1266.16 1624.02,1270.45C1619.74,1274.74 1614,1276.88 1606.8,1276.88L1469.45,1276.88ZM1764.49,1283.52C1748.16,1283.52 1733.02,1281.24 1719.05,1276.68C1705.08,1272.11 1692.91,1265.26 1682.53,1256.13C1672.16,1247.01 1664,1235.53 1658.05,1221.69C1652.1,1207.86 1649.13,1191.68 1649.13,1173.14C1649.13,1154.89 1652.1,1139.19 1658.05,1126.05C1664,1112.91 1671.81,1102.12 1681.5,1093.68C1691.18,1085.24 1702.24,1079.02 1714.69,1075.01C1727.14,1071 1739.87,1068.99 1752.87,1068.99C1767.53,1068.99 1780.88,1071.2 1792.91,1075.63C1804.94,1080.06 1815.32,1086.14 1824.03,1093.89C1832.75,1101.63 1839.52,1110.9 1844.36,1121.69C1849.21,1132.48 1851.63,1144.24 1851.63,1156.96C1851.63,1166.37 1849,1173.56 1843.74,1178.54C1838.49,1183.52 1831.15,1186.7 1821.75,1188.08L1719.26,1203.44C1722.3,1212.57 1728.52,1219.41 1737.93,1223.98C1747.33,1228.54 1758.12,1230.82 1770.3,1230.82C1781.64,1230.82 1792.36,1229.37 1802.45,1226.47C1812.55,1223.56 1820.78,1220.17 1827.14,1216.3C1831.57,1219.07 1835.31,1222.94 1838.35,1227.92C1841.39,1232.9 1842.91,1238.15 1842.91,1243.69C1842.91,1256.13 1837.1,1265.4 1825.48,1271.49C1816.63,1276.19 1806.67,1279.37 1795.61,1281.03C1784.54,1282.69 1774.17,1283.52 1764.49,1283.52ZM1752.87,1120.44C1746.23,1120.44 1740.49,1121.55 1735.65,1123.77C1730.81,1125.98 1726.86,1128.81 1723.82,1132.27C1720.78,1135.73 1718.5,1139.6 1716.97,1143.89C1715.45,1148.18 1714.55,1152.54 1714.28,1156.96L1785.23,1145.34C1784.4,1139.81 1781.36,1134.28 1776.1,1128.74C1770.85,1123.21 1763.1,1120.44 1752.87,1120.44ZM517.99,829.265L517.99,921.794L425.461,921.794L425.461,829.265L517.99,829.265ZM600.234,807.259L600.234,851.271L556.222,851.271L556.222,807.259L600.234,807.259ZM546.696,749.846L546.696,807.259L489.283,807.259L489.283,749.846L546.696,749.846ZM708.426,1019.2C708.426,1008.68 711.953,999.832 719.007,992.639C726.061,985.447 735.398,981.85 747.017,981.85C758.635,981.85 767.972,985.447 775.026,992.639C782.08,999.832 785.607,1008.68 785.607,1019.2C785.607,1029.71 782.08,1038.56 775.026,1045.75C767.972,1052.95 758.635,1056.54 747.017,1056.54C735.398,1056.54 726.061,1052.95 719.007,1045.75C711.953,1038.56 708.426,1029.71 708.426,1019.2ZM782.288,1276.47C779.245,1277.02 774.749,1277.78 768.802,1278.75C762.854,1279.72 756.837,1280.2 750.751,1280.2C744.665,1280.2 739.202,1279.79 734.36,1278.96C729.519,1278.13 725.439,1276.47 722.119,1273.98C718.8,1271.49 716.241,1268.1 714.443,1263.81C712.644,1259.52 711.745,1253.92 711.745,1247.01L711.745,1078.12C714.788,1077.57 719.284,1076.81 725.231,1075.84C731.179,1074.87 737.196,1074.38 743.282,1074.38C749.368,1074.38 754.832,1074.8 759.673,1075.63C764.514,1076.46 768.594,1078.12 771.914,1080.61C775.233,1083.1 777.792,1086.49 779.59,1090.78C781.389,1095.06 782.288,1100.67 782.288,1107.58L782.288,1276.47ZM925.447,1068.99C941.215,1068.99 955.531,1071 968.395,1075.01C981.259,1079.02 992.116,1084.21 1000.97,1090.57C1006.5,1094.44 1010.86,1098.73 1014.04,1103.43C1017.22,1108.13 1018.81,1114.22 1018.81,1121.69L1018.81,1266.92C1018.81,1281.59 1016.05,1294.24 1010.51,1304.89C1004.98,1315.54 997.442,1324.4 987.898,1331.45C978.354,1338.5 967.15,1343.69 954.286,1347.01C941.423,1350.33 927.66,1351.99 912.998,1351.99C887.825,1351.99 868.045,1348.6 853.66,1341.82C839.275,1335.05 832.082,1324.05 832.082,1308.84C832.082,1302.47 833.396,1296.87 836.024,1292.03C838.652,1287.19 841.626,1283.52 844.946,1281.03C852.968,1285.46 862.028,1289.19 872.125,1292.24C882.223,1295.28 892.666,1296.8 903.454,1296.8C918.393,1296.8 930.288,1294.31 939.141,1289.33C947.993,1284.35 952.419,1276.33 952.419,1265.26L952.419,1258.62C941.077,1263.61 927.245,1266.09 910.924,1266.09C898.475,1266.09 886.649,1264.23 875.445,1260.49C864.241,1256.76 854.421,1250.95 845.983,1243.06C837.546,1235.18 830.768,1225.01 825.65,1212.57C820.533,1200.12 817.974,1185.32 817.974,1168.16C817.974,1151.29 820.671,1136.63 826.065,1124.18C831.46,1111.73 838.929,1101.43 848.473,1093.27C858.017,1085.11 869.359,1079.02 882.499,1075.01C895.64,1071 909.955,1068.99 925.447,1068.99ZM951.174,1129.16C949.238,1128.05 946.402,1126.95 942.668,1125.84C938.933,1124.73 934.299,1124.18 928.767,1124.18C915.212,1124.18 905.045,1127.98 898.268,1135.59C891.49,1143.2 888.101,1154.06 888.101,1168.16C888.101,1184.21 891.49,1195.76 898.268,1202.81C905.045,1209.87 913.69,1213.39 924.202,1213.39C935.544,1213.39 944.535,1210.77 951.174,1205.51L951.174,1129.16Z" style="fill:white;"/>
    </g>
</svg>
