<svg width="331" height="415" viewBox="0 0 331 415" fill="none" xmlns="http://www.w3.org/2000/svg">
<g filter="url(#filter0_d_3650_15556)">
<rect x="-29" y="70" width="280" height="254.545" fill="#FEFEFE"/>
</g>
<path d="M126.96 96.1425C119.14 93.6254 110.836 92.9936 102.725 94.2987C94.6142 95.6037 86.9271 98.8086 80.2914 103.652C73.6557 108.495 68.2596 114.838 64.5437 122.165C60.8278 129.492 58.8974 137.593 58.9103 145.808L66.7237 145.796C66.7128 138.813 68.3536 131.927 71.5121 125.699C74.6707 119.472 79.2574 114.079 84.8977 109.963C90.538 105.846 97.072 103.122 103.966 102.013C110.86 100.904 117.919 101.441 124.566 103.58L126.96 96.1425Z" fill="#99DDFF"/>
<mask id="path-3-inside-1_3650_15556" fill="white">
<path d="M163.256 145.566C163.258 134.574 159.782 123.863 153.326 114.967C146.871 106.07 137.766 99.4432 127.316 96.0353L124.893 103.464C133.776 106.36 141.515 111.993 147.002 119.555C152.49 127.118 155.444 136.222 155.443 145.565L163.256 145.566Z"/>
</mask>
<path d="M163.256 145.566C163.258 134.574 159.782 123.863 153.326 114.967C146.871 106.07 137.766 99.4432 127.316 96.0353L124.893 103.464C133.776 106.36 141.515 111.993 147.002 119.555C152.49 127.118 155.444 136.222 155.443 145.565L163.256 145.566Z" fill="#C499FF" stroke="#FFD600" stroke-width="2" stroke-dasharray="2 4 6 8" mask="url(#path-3-inside-1_3650_15556)"/>
<path d="M59.1074 145.502C59.1074 159.317 64.5954 172.566 74.3641 182.335C84.1328 192.103 97.382 197.591 111.197 197.591C125.012 197.591 138.261 192.103 148.03 182.335C157.799 172.566 163.287 159.317 163.287 145.502H155.473C155.473 157.244 150.808 168.506 142.505 176.81C134.202 185.113 122.94 189.778 111.197 189.778C99.4542 189.778 88.1924 185.113 79.889 176.81C71.5857 168.506 66.9209 157.244 66.9209 145.502H59.1074Z" fill="#6EE272"/>
<circle cx="25.4077" cy="227.5" r="7.95455" fill="#6EE272"/>
<rect x="45.4531" y="223.364" width="159.091" height="7.63636" rx="3.81818" fill="#E8E7EE"/>
<circle cx="25.4077" cy="259.318" r="7.95455" fill="#C499FF"/>
<rect x="45.4531" y="255.182" width="89.0909" height="7.63636" rx="3.81818" fill="#E8E7EE"/>
<circle cx="25.4096" cy="291.136" r="7.95455" fill="#99DDFF"/>
<rect x="45.4551" y="287" width="120.909" height="7.63636" rx="3.81818" fill="#E8E7EE"/>
<defs>
<filter id="filter0_d_3650_15556" x="-109" y="0" width="440" height="414.545" filterUnits="userSpaceOnUse" color-interpolation-filters="sRGB">
<feFlood flood-opacity="0" result="BackgroundImageFix"/>
<feColorMatrix in="SourceAlpha" type="matrix" values="0 0 0 0 0 0 0 0 0 0 0 0 0 0 0 0 0 0 127 0" result="hardAlpha"/>
<feMorphology radius="10" operator="dilate" in="SourceAlpha" result="effect1_dropShadow_3650_15556"/>
<feOffset dy="10"/>
<feGaussianBlur stdDeviation="35"/>
<feColorMatrix type="matrix" values="0 0 0 0 0 0 0 0 0 0 0 0 0 0 0 0 0 0 0.04 0"/>
<feBlend mode="normal" in2="BackgroundImageFix" result="effect1_dropShadow_3650_15556"/>
<feBlend mode="normal" in="SourceGraphic" in2="effect1_dropShadow_3650_15556" result="shape"/>
</filter>
</defs>
</svg>
