<svg width="444" height="446" viewBox="0 0 444 446" fill="none" xmlns="http://www.w3.org/2000/svg">
<g filter="url(#filter0_d_3650_15569)">
<rect x="80" y="70" width="314" height="285.455" fill="#FEFEFE"/>
</g>
<path d="M212.674 246.269C212.674 244.907 212.828 243.713 213.136 242.685C213.445 241.649 213.873 240.737 214.421 239.949C214.977 239.161 215.624 238.472 216.36 237.881C217.106 237.281 217.902 236.746 218.75 236.275C219.178 236.027 219.585 235.766 219.97 235.492C220.355 235.218 220.668 234.909 220.908 234.567C221.156 234.224 221.28 233.83 221.28 233.385C221.28 232.777 221.083 232.306 220.689 231.972C220.295 231.629 219.777 231.458 219.135 231.458C218.459 231.458 217.881 231.629 217.401 231.972C216.921 232.306 216.532 232.777 216.232 233.385L212.956 231.882C213.479 230.675 214.297 229.724 215.41 229.03C216.523 228.328 217.743 227.977 219.071 227.977C220.304 227.977 221.357 228.217 222.231 228.696C223.113 229.167 223.781 229.805 224.235 230.61C224.697 231.407 224.928 232.293 224.928 233.269C224.928 234.306 224.753 235.175 224.402 235.877C224.059 236.571 223.588 237.166 222.989 237.663C222.389 238.159 221.717 238.63 220.972 239.076C220.176 239.547 219.516 239.966 218.994 240.334C218.471 240.703 218.048 241.075 217.722 241.452C217.405 241.82 217.153 242.244 216.964 242.724H225.083V246.269H212.674Z" fill="black"/>
<path d="M203.356 246.577C202.277 246.577 201.322 246.406 200.491 246.063C199.669 245.712 198.976 245.224 198.41 244.599C197.854 243.965 197.43 243.229 197.139 242.39C196.856 241.55 196.715 240.638 196.715 239.654C196.715 237.77 197.083 236.018 197.82 234.4C198.565 232.781 199.729 231.407 201.314 230.276C202.898 229.146 204.944 228.38 207.454 227.977V231.432C206.606 231.578 205.758 231.822 204.91 232.165C204.071 232.507 203.313 232.965 202.637 233.539C201.969 234.104 201.459 234.798 201.108 235.62C201.433 235.389 201.823 235.2 202.277 235.055C202.739 234.909 203.257 234.837 203.831 234.837C204.979 234.837 206.002 235.089 206.901 235.594C207.8 236.091 208.511 236.78 209.034 237.663C209.556 238.545 209.817 239.555 209.817 240.694C209.817 241.85 209.539 242.873 208.982 243.764C208.426 244.646 207.659 245.336 206.683 245.832C205.715 246.329 204.606 246.577 203.356 246.577ZM203.343 243.096C203.883 243.096 204.366 243.002 204.795 242.814C205.223 242.617 205.557 242.343 205.797 241.991C206.036 241.64 206.156 241.216 206.156 240.72C206.156 239.992 205.891 239.41 205.36 238.973C204.837 238.536 204.165 238.318 203.343 238.318C202.795 238.318 202.307 238.42 201.879 238.626C201.451 238.831 201.112 239.114 200.864 239.474C200.616 239.833 200.491 240.249 200.491 240.72C200.491 241.216 200.616 241.64 200.864 241.991C201.112 242.343 201.451 242.617 201.879 242.814C202.307 243.002 202.795 243.096 203.343 243.096Z" fill="black"/>
<path d="M186.66 246.577C185.778 246.577 184.977 246.487 184.258 246.307C183.547 246.127 182.918 245.901 182.369 245.627C181.83 245.344 181.376 245.057 181.008 244.766L182.947 241.876C183.256 242.081 183.594 242.278 183.962 242.467C184.339 242.655 184.75 242.809 185.195 242.929C185.641 243.049 186.129 243.109 186.66 243.109C187.294 243.109 187.854 242.997 188.343 242.775C188.831 242.552 189.207 242.227 189.473 241.799C189.747 241.37 189.884 240.852 189.884 240.244C189.884 239.756 189.794 239.324 189.614 238.947C189.443 238.57 189.186 238.275 188.844 238.061C188.51 237.846 188.09 237.739 187.585 237.739C186.925 237.739 186.377 237.859 185.94 238.099C185.504 238.33 185.106 238.647 184.746 239.05L181.547 237.418L182.023 228.285H192.415V231.831H185.414L185.221 234.734C185.615 234.588 186 234.472 186.377 234.387C186.763 234.293 187.174 234.245 187.61 234.245C188.903 234.245 189.991 234.511 190.873 235.042C191.755 235.573 192.423 236.292 192.877 237.2C193.331 238.108 193.558 239.127 193.558 240.257C193.558 241.542 193.258 242.659 192.659 243.61C192.068 244.552 191.25 245.284 190.205 245.806C189.169 246.32 187.987 246.577 186.66 246.577Z" fill="black"/>
<path d="M175.374 249.891L173.846 248.722C174 248.585 174.188 248.384 174.411 248.118C174.634 247.853 174.848 247.57 175.053 247.271C175.267 246.971 175.43 246.697 175.541 246.448C175.13 246.269 174.796 246.012 174.539 245.678C174.282 245.344 174.154 244.911 174.154 244.38C174.154 243.721 174.377 243.194 174.822 242.8C175.276 242.406 175.798 242.209 176.389 242.209C176.997 242.209 177.515 242.428 177.943 242.865C178.38 243.293 178.599 243.905 178.599 244.701C178.599 245.361 178.444 246.025 178.136 246.693C177.836 247.361 177.438 247.973 176.941 248.529C176.453 249.095 175.931 249.549 175.374 249.891Z" fill="black"/>
<path d="M158.832 246.269C158.832 244.907 158.986 243.713 159.294 242.685C159.603 241.649 160.031 240.737 160.579 239.949C161.136 239.161 161.782 238.472 162.519 237.881C163.264 237.281 164.06 236.746 164.908 236.275C165.336 236.027 165.743 235.766 166.128 235.492C166.514 235.218 166.826 234.909 167.066 234.567C167.314 234.224 167.438 233.83 167.438 233.385C167.438 232.777 167.242 232.306 166.848 231.972C166.454 231.629 165.936 231.458 165.293 231.458C164.617 231.458 164.039 231.629 163.559 231.972C163.08 232.306 162.69 232.777 162.39 233.385L159.115 231.882C159.637 230.675 160.455 229.724 161.568 229.03C162.681 228.328 163.902 227.977 165.229 227.977C166.462 227.977 167.516 228.217 168.389 228.696C169.271 229.167 169.939 229.805 170.393 230.61C170.855 231.407 171.087 232.293 171.087 233.269C171.087 234.306 170.911 235.175 170.56 235.877C170.217 236.571 169.746 237.166 169.147 237.663C168.547 238.159 167.875 238.63 167.13 239.076C166.334 239.547 165.674 239.966 165.152 240.334C164.63 240.703 164.206 241.075 163.88 241.452C163.563 241.82 163.311 242.244 163.122 242.724H171.241V246.269H158.832Z" fill="black"/>
<path d="M143.127 246.269C143.127 244.907 143.281 243.713 143.589 242.685C143.898 241.649 144.326 240.737 144.874 239.949C145.431 239.161 146.077 238.472 146.814 237.881C147.559 237.281 148.355 236.746 149.203 236.275C149.631 236.027 150.038 235.766 150.423 235.492C150.809 235.218 151.121 234.909 151.361 234.567C151.609 234.224 151.733 233.83 151.733 233.385C151.733 232.777 151.536 232.306 151.143 231.972C150.749 231.629 150.23 231.458 149.588 231.458C148.912 231.458 148.334 231.629 147.854 231.972C147.375 232.306 146.985 232.777 146.685 233.385L143.41 231.882C143.932 230.675 144.75 229.724 145.863 229.03C146.976 228.328 148.197 227.977 149.524 227.977C150.757 227.977 151.81 228.217 152.684 228.696C153.566 229.167 154.234 229.805 154.688 230.61C155.15 231.407 155.382 232.293 155.382 233.269C155.382 234.306 155.206 235.175 154.855 235.877C154.512 236.571 154.041 237.166 153.442 237.663C152.842 238.159 152.17 238.63 151.425 239.076C150.629 239.547 149.969 239.966 149.447 240.334C148.925 240.703 148.501 241.075 148.175 241.452C147.858 241.82 147.606 242.244 147.417 242.724H155.536V246.269H143.127Z" fill="black"/>
<path d="M134.518 246.269V233.141H131.846V230.173C132.411 230.173 132.92 230.118 133.374 230.006C133.828 229.887 134.209 229.69 134.518 229.416C134.834 229.142 135.074 228.765 135.237 228.285H138.217V246.269H134.518Z" fill="black"/>
<path d="M121.353 248.581V246.307C120.179 245.982 119.207 245.408 118.437 244.586C117.666 243.764 117.075 242.757 116.664 241.567L120.004 240.334C120.355 241.122 120.826 241.777 121.417 242.299C122.008 242.822 122.659 243.083 123.369 243.083C124.054 243.083 124.603 242.912 125.014 242.569C125.425 242.218 125.63 241.725 125.63 241.092C125.63 240.621 125.493 240.231 125.219 239.923C124.945 239.606 124.568 239.328 124.089 239.088C123.618 238.848 123.083 238.613 122.483 238.381C121.875 238.133 121.271 237.868 120.672 237.585C120.072 237.302 119.524 236.96 119.028 236.557C118.539 236.155 118.146 235.654 117.846 235.054C117.555 234.446 117.409 233.706 117.409 232.832C117.409 231.753 117.747 230.777 118.424 229.903C119.1 229.021 120.077 228.448 121.353 228.182V226.14H124.924V228.208C125.968 228.49 126.803 228.996 127.429 229.724C128.054 230.451 128.508 231.295 128.79 232.254L125.502 233.346C125.296 232.832 124.984 232.391 124.564 232.023C124.144 231.646 123.605 231.458 122.945 231.458C122.389 231.458 121.956 231.578 121.648 231.817C121.34 232.049 121.186 232.387 121.186 232.832C121.186 233.192 121.318 233.5 121.584 233.757C121.849 234.014 122.2 234.249 122.637 234.464C123.083 234.669 123.571 234.87 124.102 235.067C124.675 235.281 125.271 235.534 125.887 235.825C126.512 236.116 127.09 236.485 127.621 236.93C128.152 237.367 128.58 237.919 128.906 238.587C129.24 239.255 129.407 240.077 129.407 241.053C129.407 242.047 129.206 242.912 128.803 243.648C128.409 244.384 127.874 244.988 127.197 245.459C126.521 245.93 125.763 246.251 124.924 246.423V248.581H121.353Z" fill="black"/>
<path d="M195.509 296.065C195.456 296.154 195.401 296.219 195.344 296.261C195.286 296.303 195.213 296.324 195.124 296.324C195.03 296.324 194.923 296.282 194.802 296.198C194.682 296.109 194.53 296.012 194.347 295.908C194.169 295.798 193.954 295.701 193.703 295.617C193.452 295.528 193.151 295.484 192.801 295.484C192.471 295.484 192.18 295.528 191.929 295.617C191.683 295.701 191.476 295.819 191.309 295.97C191.142 296.117 191.013 296.292 190.924 296.496C190.841 296.695 190.799 296.912 190.799 297.148C190.799 297.451 190.875 297.703 191.026 297.901C191.183 298.1 191.388 298.27 191.639 298.412C191.89 298.553 192.175 298.676 192.494 298.781C192.814 298.885 193.141 298.995 193.476 299.11C193.811 299.22 194.138 299.348 194.457 299.495C194.776 299.642 195.061 299.827 195.313 300.052C195.564 300.272 195.765 300.544 195.917 300.869C196.074 301.188 196.152 301.58 196.152 302.046C196.152 302.543 196.066 303.009 195.893 303.444C195.726 303.878 195.48 304.257 195.156 304.582C194.831 304.906 194.431 305.163 193.954 305.351C193.483 305.534 192.947 305.626 192.345 305.626C191.984 305.626 191.633 305.589 191.293 305.516C190.953 305.448 190.631 305.351 190.328 305.226C190.024 305.095 189.739 304.94 189.472 304.762C189.21 304.579 188.975 304.375 188.766 304.15L189.244 303.349C189.292 303.287 189.347 303.234 189.409 303.192C189.477 303.15 189.553 303.13 189.637 303.13C189.747 303.13 189.872 303.187 190.014 303.302C190.16 303.417 190.338 303.546 190.548 303.687C190.762 303.823 191.016 303.949 191.309 304.064C191.607 304.179 191.968 304.236 192.392 304.236C192.738 304.236 193.046 304.192 193.319 304.103C193.591 304.009 193.818 303.878 194.002 303.71C194.19 303.538 194.334 303.331 194.433 303.09C194.533 302.85 194.582 302.583 194.582 302.29C194.582 301.96 194.507 301.69 194.355 301.481C194.203 301.272 194.002 301.096 193.75 300.955C193.499 300.814 193.214 300.693 192.895 300.594C192.575 300.495 192.248 300.393 191.913 300.288C191.579 300.178 191.251 300.052 190.932 299.911C190.613 299.77 190.328 299.587 190.077 299.362C189.825 299.131 189.624 298.846 189.472 298.506C189.32 298.161 189.244 297.737 189.244 297.234C189.244 296.831 189.323 296.441 189.48 296.065C189.637 295.688 189.865 295.355 190.163 295.068C190.466 294.775 190.838 294.542 191.278 294.369C191.717 294.191 192.22 294.102 192.785 294.102C193.418 294.102 193.999 294.204 194.528 294.408C195.061 294.607 195.524 294.895 195.917 295.272L195.509 296.065Z" fill="#222222"/>
<path d="M182.968 299.66C183.398 299.66 183.774 299.607 184.099 299.503C184.428 299.398 184.703 299.252 184.923 299.063C185.143 298.87 185.308 298.642 185.418 298.38C185.527 298.113 185.582 297.82 185.582 297.501C185.582 296.852 185.368 296.363 184.939 296.033C184.515 295.703 183.876 295.538 183.023 295.538H181.445V299.66H182.968ZM188.228 305.5H186.736C186.438 305.5 186.221 305.382 186.085 305.147L183.298 301.238C183.209 301.107 183.112 301.015 183.008 300.963C182.903 300.905 182.746 300.876 182.537 300.876H181.445V305.5H179.773V294.228H183.023C183.751 294.228 184.376 294.303 184.899 294.455C185.428 294.602 185.862 294.814 186.203 295.091C186.548 295.363 186.802 295.693 186.964 296.08C187.132 296.467 187.215 296.902 187.215 297.383C187.215 297.776 187.155 298.145 187.035 298.49C186.914 298.835 186.736 299.147 186.501 299.424C186.271 299.696 185.988 299.932 185.653 300.131C185.318 300.33 184.939 300.481 184.515 300.586C184.724 300.712 184.905 300.887 185.056 301.112L188.228 305.5Z" fill="#222222"/>
<path d="M172.596 304.158C173.046 304.158 173.449 304.082 173.805 303.93C174.161 303.778 174.462 303.566 174.708 303.294C174.954 303.017 175.142 302.69 175.273 302.313C175.404 301.931 175.469 301.51 175.469 301.049V294.228H177.133V301.049C177.133 301.709 177.029 302.318 176.819 302.878C176.61 303.438 176.309 303.922 175.916 304.33C175.524 304.739 175.048 305.058 174.488 305.288C173.928 305.518 173.297 305.634 172.596 305.634C171.895 305.634 171.264 305.518 170.704 305.288C170.144 305.058 169.668 304.739 169.275 304.33C168.883 303.922 168.582 303.438 168.373 302.878C168.163 302.318 168.059 301.709 168.059 301.049V294.228H169.731V301.041C169.731 301.502 169.793 301.923 169.919 302.305C170.05 302.687 170.238 303.017 170.484 303.294C170.73 303.566 171.031 303.778 171.387 303.93C171.743 304.082 172.146 304.158 172.596 304.158Z" fill="#222222"/>
<path d="M166.096 299.864C166.096 300.707 165.96 301.481 165.688 302.188C165.421 302.889 165.042 303.496 164.55 304.009C164.058 304.516 163.469 304.911 162.784 305.194C162.098 305.477 161.337 305.618 160.499 305.618C159.667 305.618 158.906 305.477 158.215 305.194C157.529 304.911 156.941 304.516 156.449 304.009C155.962 303.496 155.583 302.889 155.311 302.188C155.038 301.481 154.902 300.707 154.902 299.864C154.902 299.027 155.038 298.255 155.311 297.548C155.583 296.842 155.962 296.235 156.449 295.727C156.941 295.214 157.529 294.816 158.215 294.534C158.906 294.246 159.667 294.102 160.499 294.102C161.337 294.102 162.098 294.246 162.784 294.534C163.469 294.816 164.058 295.214 164.55 295.727C165.042 296.235 165.421 296.842 165.688 297.548C165.96 298.255 166.096 299.027 166.096 299.864ZM164.385 299.864C164.385 299.194 164.294 298.592 164.11 298.058C163.927 297.525 163.666 297.072 163.325 296.7C162.99 296.329 162.582 296.044 162.101 295.845C161.625 295.646 161.091 295.546 160.499 295.546C159.908 295.546 159.372 295.646 158.89 295.845C158.414 296.044 158.006 296.329 157.666 296.7C157.325 297.072 157.064 297.525 156.881 298.058C156.697 298.592 156.606 299.194 156.606 299.864C156.606 300.539 156.697 301.144 156.881 301.677C157.064 302.206 157.325 302.656 157.666 303.028C158.006 303.399 158.414 303.684 158.89 303.883C159.372 304.077 159.908 304.174 160.499 304.174C161.091 304.174 161.625 304.077 162.101 303.883C162.582 303.684 162.99 303.399 163.325 303.028C163.666 302.656 163.927 302.206 164.11 301.677C164.294 301.144 164.385 300.539 164.385 299.864Z" fill="#222222"/>
<path d="M152.806 294.228V305.5H151.134V300.421H145.254V305.5H143.574V294.228H145.254V299.204H151.134V294.228H152.806Z" fill="#222222"/>
<path d="M137.758 299.864C137.758 300.848 137.651 301.701 137.436 302.423C137.227 303.145 136.936 303.744 136.565 304.221C136.198 304.692 135.764 305.042 135.262 305.273C134.764 305.503 134.228 305.618 133.652 305.618C133.077 305.618 132.538 305.503 132.035 305.273C131.538 305.042 131.106 304.692 130.74 304.221C130.374 303.744 130.086 303.145 129.876 302.423C129.667 301.701 129.562 300.848 129.562 299.864C129.562 298.88 129.667 298.027 129.876 297.305C130.086 296.577 130.374 295.978 130.74 295.507C131.106 295.031 131.538 294.678 132.035 294.447C132.538 294.217 133.077 294.102 133.652 294.102C134.228 294.102 134.764 294.217 135.262 294.447C135.764 294.678 136.198 295.031 136.565 295.507C136.936 295.978 137.227 296.577 137.436 297.305C137.651 298.027 137.758 298.88 137.758 299.864ZM136.172 299.864C136.172 299.016 136.102 298.307 135.96 297.737C135.824 297.166 135.638 296.708 135.403 296.363C135.173 296.012 134.906 295.764 134.602 295.617C134.299 295.471 133.982 295.397 133.652 295.397C133.323 295.397 133.006 295.471 132.702 295.617C132.399 295.764 132.129 296.012 131.894 296.363C131.664 296.708 131.481 297.166 131.344 297.737C131.208 298.307 131.14 299.016 131.14 299.864C131.14 300.712 131.208 301.421 131.344 301.991C131.481 302.562 131.664 303.02 131.894 303.365C132.129 303.71 132.399 303.956 132.702 304.103C133.006 304.249 133.323 304.323 133.652 304.323C133.982 304.323 134.299 304.249 134.602 304.103C134.906 303.956 135.173 303.71 135.403 303.365C135.638 303.02 135.824 302.562 135.96 301.991C136.102 301.421 136.172 300.712 136.172 299.864Z" fill="#222222"/>
<path d="M128.023 304.331V305.5H121.931V304.331H124.318V296.944C124.318 296.708 124.325 296.465 124.341 296.214L122.426 297.839C122.352 297.896 122.279 297.933 122.206 297.949C122.133 297.964 122.062 297.967 121.994 297.956C121.931 297.946 121.874 297.925 121.821 297.894C121.774 297.857 121.735 297.82 121.703 297.784L121.225 297.116L124.6 294.204H125.848V304.331H128.023Z" fill="#222222"/>
<path d="M118.915 304.331V305.5H112.824V304.331H115.21V296.944C115.21 296.708 115.218 296.465 115.234 296.214L113.318 297.839C113.245 297.896 113.172 297.933 113.098 297.949C113.025 297.964 112.955 297.967 112.886 297.956C112.824 297.946 112.766 297.925 112.714 297.894C112.667 297.857 112.627 297.82 112.596 297.784L112.117 297.116L115.493 294.204H116.741V304.331H118.915Z" fill="#222222"/>
<path d="M343.266 293.383C343.266 293.823 343.196 294.215 343.054 294.561C342.918 294.906 342.735 295.199 342.505 295.44C342.275 295.675 342.005 295.859 341.696 295.989C341.393 296.115 341.074 296.178 340.739 296.178C340.378 296.178 340.043 296.115 339.734 295.989C339.43 295.859 339.166 295.675 338.941 295.44C338.716 295.199 338.538 294.906 338.407 294.561C338.282 294.215 338.219 293.823 338.219 293.383C338.219 292.933 338.282 292.533 338.407 292.182C338.538 291.832 338.716 291.536 338.941 291.295C339.166 291.049 339.43 290.863 339.734 290.738C340.043 290.607 340.378 290.542 340.739 290.542C341.1 290.542 341.432 290.607 341.736 290.738C342.044 290.863 342.311 291.049 342.536 291.295C342.767 291.536 342.944 291.832 343.07 292.182C343.201 292.533 343.266 292.933 343.266 293.383ZM342.073 293.383C342.073 293.048 342.036 292.766 341.963 292.535C341.895 292.3 341.801 292.112 341.681 291.97C341.56 291.824 341.419 291.719 341.257 291.656C341.094 291.588 340.922 291.554 340.739 291.554C340.555 291.554 340.383 291.588 340.221 291.656C340.058 291.719 339.917 291.824 339.797 291.97C339.681 292.112 339.59 292.3 339.522 292.535C339.454 292.766 339.42 293.048 339.42 293.383C339.42 293.708 339.454 293.985 339.522 294.215C339.59 294.44 339.681 294.624 339.797 294.765C339.917 294.906 340.058 295.008 340.221 295.071C340.383 295.134 340.555 295.165 340.739 295.165C340.922 295.165 341.094 295.134 341.257 295.071C341.419 295.008 341.56 294.906 341.681 294.765C341.801 294.624 341.895 294.44 341.963 294.215C342.036 293.985 342.073 293.708 342.073 293.383ZM347.191 290.91C347.249 290.842 347.314 290.785 347.388 290.738C347.466 290.685 347.573 290.659 347.709 290.659H348.816L340.542 301.689C340.485 301.762 340.417 301.822 340.338 301.869C340.26 301.911 340.166 301.932 340.056 301.932H338.917L347.191 290.91ZM349.538 299.271C349.538 299.71 349.468 300.103 349.327 300.448C349.19 300.794 349.007 301.087 348.777 301.327C348.547 301.563 348.277 301.746 347.968 301.877C347.665 302.003 347.346 302.065 347.011 302.065C346.65 302.065 346.315 302.003 346.006 301.877C345.702 301.746 345.438 301.563 345.213 301.327C344.988 301.087 344.81 300.794 344.679 300.448C344.554 300.103 344.491 299.71 344.491 299.271C344.491 298.821 344.554 298.42 344.679 298.07C344.81 297.719 344.988 297.423 345.213 297.183C345.438 296.937 345.702 296.751 346.006 296.625C346.315 296.5 346.65 296.437 347.011 296.437C347.372 296.437 347.704 296.5 348.008 296.625C348.316 296.751 348.583 296.937 348.808 297.183C349.039 297.423 349.217 297.719 349.342 298.07C349.473 298.42 349.538 298.821 349.538 299.271ZM348.345 299.271C348.345 298.936 348.309 298.653 348.235 298.423C348.167 298.193 348.073 298.007 347.953 297.866C347.832 297.719 347.691 297.614 347.529 297.552C347.367 297.484 347.194 297.45 347.011 297.45C346.822 297.45 346.647 297.484 346.485 297.552C346.328 297.614 346.189 297.719 346.069 297.866C345.954 298.007 345.862 298.193 345.794 298.423C345.726 298.653 345.692 298.936 345.692 299.271C345.692 299.6 345.726 299.878 345.794 300.103C345.862 300.328 345.954 300.511 346.069 300.652C346.189 300.794 346.328 300.896 346.485 300.958C346.647 301.021 346.822 301.053 347.011 301.053C347.194 301.053 347.367 301.021 347.529 300.958C347.691 300.896 347.832 300.794 347.953 300.652C348.073 300.511 348.167 300.328 348.235 300.103C348.309 299.878 348.345 299.6 348.345 299.271Z" fill="#222222"/>
<path d="M337.094 296.295C337.094 297.279 336.987 298.132 336.772 298.854C336.563 299.576 336.272 300.176 335.901 300.652C335.534 301.123 335.1 301.473 334.598 301.704C334.1 301.934 333.564 302.049 332.988 302.049C332.413 302.049 331.874 301.934 331.371 301.704C330.874 301.473 330.442 301.123 330.076 300.652C329.71 300.176 329.422 299.576 329.212 298.854C329.003 298.132 328.898 297.279 328.898 296.295C328.898 295.311 329.003 294.458 329.212 293.736C329.422 293.009 329.71 292.409 330.076 291.938C330.442 291.462 330.874 291.109 331.371 290.879C331.874 290.648 332.413 290.533 332.988 290.533C333.564 290.533 334.1 290.648 334.598 290.879C335.1 291.109 335.534 291.462 335.901 291.938C336.272 292.409 336.563 293.009 336.772 293.736C336.987 294.458 337.094 295.311 337.094 296.295ZM335.508 296.295C335.508 295.447 335.437 294.738 335.296 294.168C335.16 293.597 334.974 293.139 334.739 292.794C334.509 292.443 334.242 292.195 333.938 292.048C333.635 291.902 333.318 291.828 332.988 291.828C332.659 291.828 332.342 291.902 332.038 292.048C331.735 292.195 331.465 292.443 331.23 292.794C331 293.139 330.816 293.597 330.68 294.168C330.544 294.738 330.476 295.447 330.476 296.295C330.476 297.143 330.544 297.852 330.68 298.422C330.816 298.993 331 299.451 331.23 299.796C331.465 300.142 331.735 300.388 332.038 300.534C332.342 300.681 332.659 300.754 332.988 300.754C333.318 300.754 333.635 300.681 333.938 300.534C334.242 300.388 334.509 300.142 334.739 299.796C334.974 299.451 335.16 298.993 335.296 298.422C335.437 297.852 335.508 297.143 335.508 296.295Z" fill="#222222"/>
<path d="M323.889 300.84C324.245 300.84 324.562 300.791 324.839 300.691C325.117 300.592 325.352 300.453 325.546 300.275C325.739 300.092 325.886 299.875 325.985 299.624C326.085 299.372 326.134 299.098 326.134 298.799C326.134 298.433 326.074 298.119 325.954 297.857C325.834 297.59 325.671 297.373 325.467 297.206C325.263 297.033 325.025 296.907 324.753 296.829C324.481 296.745 324.193 296.703 323.889 296.703C323.581 296.703 323.29 296.745 323.018 296.829C322.746 296.907 322.508 297.033 322.304 297.206C322.1 297.373 321.937 297.59 321.817 297.857C321.702 298.119 321.644 298.433 321.644 298.799C321.644 299.098 321.694 299.372 321.793 299.624C321.893 299.875 322.039 300.092 322.233 300.275C322.427 300.453 322.662 300.592 322.94 300.691C323.217 300.791 323.534 300.84 323.889 300.84ZM323.889 291.711C323.565 291.711 323.28 291.76 323.034 291.86C322.793 291.954 322.592 292.085 322.429 292.252C322.267 292.42 322.144 292.613 322.06 292.833C321.982 293.053 321.943 293.289 321.943 293.54C321.943 293.786 321.977 294.026 322.045 294.262C322.118 294.492 322.23 294.699 322.382 294.882C322.539 295.06 322.741 295.204 322.987 295.314C323.233 295.424 323.534 295.479 323.889 295.479C324.24 295.479 324.538 295.424 324.784 295.314C325.035 295.204 325.237 295.06 325.389 294.882C325.546 294.699 325.658 294.492 325.726 294.262C325.8 294.026 325.836 293.786 325.836 293.54C325.836 293.289 325.794 293.053 325.711 292.833C325.632 292.613 325.512 292.42 325.349 292.252C325.187 292.085 324.983 291.954 324.737 291.86C324.496 291.76 324.214 291.711 323.889 291.711ZM325.577 296.052C326.278 296.261 326.81 296.599 327.171 297.064C327.537 297.53 327.72 298.119 327.72 298.831C327.72 299.323 327.626 299.767 327.438 300.165C327.254 300.563 326.993 300.903 326.653 301.186C326.318 301.463 325.915 301.678 325.444 301.829C324.973 301.981 324.455 302.057 323.889 302.057C323.324 302.057 322.806 301.981 322.335 301.829C321.864 301.678 321.459 301.463 321.118 301.186C320.783 300.903 320.522 300.563 320.333 300.165C320.15 299.767 320.059 299.323 320.059 298.831C320.059 298.119 320.239 297.53 320.6 297.064C320.967 296.599 321.5 296.261 322.202 296.052C321.621 295.832 321.184 295.505 320.891 295.071C320.598 294.631 320.451 294.11 320.451 293.508C320.451 293.09 320.532 292.7 320.694 292.339C320.862 291.972 321.095 291.656 321.393 291.389C321.697 291.122 322.06 290.913 322.484 290.761C322.908 290.609 323.377 290.533 323.889 290.533C324.402 290.533 324.871 290.609 325.295 290.761C325.718 290.913 326.08 291.122 326.378 291.389C326.681 291.656 326.914 291.972 327.076 292.339C327.244 292.7 327.328 293.09 327.328 293.508C327.328 294.11 327.181 294.631 326.888 295.071C326.595 295.505 326.158 295.832 325.577 296.052Z" fill="#222222"/>
<circle cx="121.034" cy="189.534" r="12.4886" fill="#6EE272"/>
<circle cx="163.852" cy="189.534" r="12.4886" fill="#C499FF"/>
<circle cx="206.67" cy="189.534" r="12.4886" fill="#99DDFF"/>
<rect x="108.545" y="108.537" width="242.636" height="7.13636" rx="3.56818" fill="#E8E7EE"/>
<rect x="108.545" y="127.091" width="242.636" height="7.13636" rx="3.56818" fill="#E8E7EE"/>
<rect x="108.545" y="145.645" width="142.727" height="7.13636" rx="3.56818" fill="#E8E7EE"/>
<rect x="108.545" y="316.917" width="242.636" height="8.56364" rx="4.28182" fill="#E8E7EE"/>
<rect x="108.545" y="316.917" width="195.536" height="8.56364" rx="4.28182" fill="#8AE58D"/>
<path d="M249.13 227L258.401 243.057H239.86L249.13 227Z" fill="#6EE272"/>
<defs>
<filter id="filter0_d_3650_15569" x="0" y="0" width="474" height="445.455" filterUnits="userSpaceOnUse" color-interpolation-filters="sRGB">
<feFlood flood-opacity="0" result="BackgroundImageFix"/>
<feColorMatrix in="SourceAlpha" type="matrix" values="0 0 0 0 0 0 0 0 0 0 0 0 0 0 0 0 0 0 127 0" result="hardAlpha"/>
<feMorphology radius="10" operator="dilate" in="SourceAlpha" result="effect1_dropShadow_3650_15569"/>
<feOffset dy="10"/>
<feGaussianBlur stdDeviation="35"/>
<feColorMatrix type="matrix" values="0 0 0 0 0 0 0 0 0 0 0 0 0 0 0 0 0 0 0.04 0"/>
<feBlend mode="normal" in2="BackgroundImageFix" result="effect1_dropShadow_3650_15569"/>
<feBlend mode="normal" in="SourceGraphic" in2="effect1_dropShadow_3650_15569" result="shape"/>
</filter>
</defs>
</svg>
