<?xml version="1.0" encoding="UTF-8" standalone="no"?>
<!DOCTYPE svg PUBLIC "-//W3C//DTD SVG 1.1//EN" "http://www.w3.org/Graphics/SVG/1.1/DTD/svg11.dtd">
<svg width="100%" height="100%" viewBox="0 0 444 446" version="1.1" xmlns="http://www.w3.org/2000/svg" xmlns:xlink="http://www.w3.org/1999/xlink" xml:space="preserve" xmlns:serif="http://www.serif.com/" style="fill-rule:evenodd;clip-rule:evenodd;stroke-linejoin:round;stroke-miterlimit:2;">
    <g transform="matrix(1,0,0,1,50,0)">
        <rect x="80" y="70" width="314" height="285.455" style="fill:rgb(35,35,35);"/>
    </g>
    <g transform="matrix(1,0,0,1,50,57.9877)">
        <circle cx="121.034" cy="189.534" r="12.489" style="fill:rgb(110,226,114);"/>
    </g>
    <g transform="matrix(1,0,0,1,50,57.9877)">
        <circle cx="163.852" cy="189.534" r="12.489" style="fill:rgb(196,153,255);"/>
    </g>
    <g transform="matrix(1,0,0,1,50,57.9877)">
        <circle cx="206.67" cy="189.534" r="12.489" style="fill:rgb(153,221,255);"/>
    </g>
    <g transform="matrix(1,0,0,1,50,0)">
        <path d="M351.181,112.105C351.181,114.075 349.582,115.673 347.613,115.673L112.113,115.673C110.144,115.673 108.545,114.075 108.545,112.105C108.545,110.136 110.144,108.537 112.113,108.537L347.613,108.537C349.582,108.537 351.181,110.136 351.181,112.105Z" style="fill:rgb(135,135,135);"/>
    </g>
    <g transform="matrix(1,0,0,1,50,172.49)">
        <path d="M351.181,130.659C351.181,132.629 349.582,134.227 347.613,134.227L112.113,134.227C110.144,134.227 108.545,132.629 108.545,130.659C108.545,128.69 110.144,127.091 112.113,127.091L347.613,127.091C349.582,127.091 351.181,128.69 351.181,130.659Z" style="fill:rgb(135,135,135);"/>
    </g>
    <g transform="matrix(1,0,0,1,50,-0.644179)">
        <path d="M351.181,130.659C351.181,132.629 349.582,134.227 347.613,134.227L112.113,134.227C110.144,134.227 108.545,132.629 108.545,130.659C108.545,128.69 110.144,127.091 112.113,127.091L347.613,127.091C349.582,127.091 351.181,128.69 351.181,130.659Z" style="fill:rgb(135,135,135);"/>
    </g>
    <g transform="matrix(1,0,0,1,50,135.343)">
        <path d="M251.272,149.213C251.272,151.183 249.673,152.781 247.704,152.781L112.113,152.781C110.144,152.781 108.545,151.183 108.545,149.213C108.545,147.244 110.144,145.645 112.113,145.645L247.704,145.645C249.673,145.645 251.272,147.244 251.272,149.213Z" style="fill:rgb(135,135,135);"/>
    </g>
    <g transform="matrix(1,0,0,1,50,-0.644179)">
        <path d="M251.272,149.213C251.272,151.183 249.673,152.781 247.704,152.781L112.113,152.781C110.144,152.781 108.545,151.183 108.545,149.213C108.545,147.244 110.144,145.645 112.113,145.645L247.704,145.645C249.673,145.645 251.272,147.244 251.272,149.213Z" style="fill:rgb(135,135,135);"/>
    </g>
    <g transform="matrix(1,0,0,1,50,0)">
        <path d="M351.181,321.199C351.181,323.562 349.262,325.481 346.899,325.481L112.827,325.481C110.464,325.481 108.545,323.562 108.545,321.199C108.545,318.836 110.464,316.917 112.827,316.917L346.899,316.917C349.262,316.917 351.181,318.836 351.181,321.199Z" style="fill:rgb(135,135,135);"/>
    </g>
    <g transform="matrix(1,0,0,1,50,0)">
        <path d="M304.081,321.199C304.081,323.562 302.162,325.481 299.799,325.481L112.827,325.481C110.464,325.481 108.545,323.562 108.545,321.199C108.545,318.836 110.464,316.917 112.827,316.917L299.799,316.917C302.162,316.917 304.081,318.836 304.081,321.199Z" style="fill:rgb(138,229,141);"/>
    </g>
</svg>
