<svg width="199" height="184" viewBox="0 0 199 184" fill="none" xmlns="http://www.w3.org/2000/svg">
<path d="M199 0L149.25 -1.30478e-05L199 61.2308L199 0Z" fill="#061237"/>
<path d="M148 1.25L102.126 1.24999L148 57.71L148 1.25Z" stroke="#6EE272" stroke-width="2.5"/>
<path d="M148 62.481L102.126 62.4809L148 118.941L148 62.481Z" stroke="#6EE272" stroke-width="2.5"/>
<path d="M148 123.712L102.126 123.712L148 180.172L148 123.712Z" stroke="#6EE272" stroke-width="2.5"/>
<path d="M197.75 62.4807L151.876 62.4807L197.75 118.941L197.75 62.4807Z" stroke="#6EE272" stroke-width="2.5"/>
<path d="M197.75 123.712L151.876 123.712L197.75 180.172L197.75 123.712Z" stroke="#6EE272" stroke-width="2.5"/>
<path d="M98.25 1.25024L52.3762 1.25023L98.25 57.7103L98.25 1.25024Z" stroke="#6EE272" stroke-width="2.5"/>
<path d="M98.25 62.481L52.3762 62.4809L98.25 118.941L98.25 62.481Z" stroke="#6EE272" stroke-width="2.5"/>
<path d="M98.25 123.712L52.3762 123.712L98.25 180.172L98.25 123.712Z" stroke="#6EE272" stroke-width="2.5"/>
<path d="M48.5 1.25024L2.62621 1.25023L48.5 57.7103L48.5 1.25024Z" stroke="#6EE272" stroke-width="2.5"/>
<path d="M48.5 62.481L2.62621 62.4809L48.5 118.941L48.5 62.481Z" stroke="#6EE272" stroke-width="2.5"/>
<path d="M48.5 123.712L2.62621 123.712L48.5 180.172L48.5 123.712Z" stroke="#6EE272" stroke-width="2.5"/>
</svg>
