<svg width="202" height="218" viewBox="0 0 202 218" fill="none" xmlns="http://www.w3.org/2000/svg">
<path d="M203.77 217.75L203.77 162.562L135.846 217.75L203.77 217.75Z" fill="#061237"/>
<path d="M202.77 161.562L202.77 109.476L138.663 161.562L202.77 161.562Z" stroke="#6EE272" stroke-width="2"/>
<path d="M134.846 161.562L134.846 109.476L70.7392 161.562L134.846 161.562Z" stroke="#6EE272" stroke-width="2"/>
<path d="M66.9238 161.562L66.9238 109.476L2.81731 161.562L66.9238 161.562Z" stroke="#6EE272" stroke-width="2"/>
<path d="M134.848 216.75L134.848 164.663L70.7411 216.75L134.848 216.75Z" stroke="#6EE272" stroke-width="2"/>
<path d="M66.9238 216.75L66.9238 164.663L2.81731 216.75L66.9238 216.75Z" stroke="#6EE272" stroke-width="2"/>
<path d="M202.77 106.375L202.77 54.2885L138.663 106.375L202.77 106.375Z" stroke="#6EE272" stroke-width="2"/>
<path d="M135.846 107.375L135.846 52.1875L67.9226 107.375L135.846 107.375Z" fill="#130B46"/>
<path d="M66.9238 106.375L66.9238 54.2885L2.81731 106.375L66.9238 106.375Z" stroke="#6EE272" stroke-width="2"/>
<path d="M202.77 51.1875L202.77 -0.899048L138.663 51.1875L202.77 51.1875Z" stroke="#6EE272" stroke-width="2"/>
<path d="M134.846 51.1875L134.846 -0.899048L70.7392 51.1875L134.846 51.1875Z" stroke="#6EE272" stroke-width="2"/>
<path d="M66.9238 51.1875L66.9238 -0.899048L2.81731 51.1875L66.9238 51.1875Z" stroke="#6EE272" stroke-width="2"/>
</svg>
